# xmcd
# 
# Track frame offsets:
#     150
#     20724
#     46442
#     65322
#     87850
#     110553
#     127449
#     148292
#     163755
#     181574
#     198425
#     224269
# 
# Disc length: 3246
# 
# Revision: 10
# Processed by: cddbd v1.5.2PL0 Copyright (c) Steve Scherf et al.
# Submitted via: fre:ac v1.0.31
# 
DISCID=b60cac0c
DTITLE=Buddy Guy - Living Proof
DYEAR=2010
DGENRE=Blues
TTITLE0=74 Years Young
TTITLE1=Thank Me Someday
TTITLE2=On The Road
TTITLE3=Stay Around A Little Longer [featuring B.B. King]
TTITLE4=Key Don't Fit
TTITLE5=Living Proof
TTITLE6=Where The Blues Begins [featuring Carlos Santana]
TTITLE7=Too Soon
TTITLE8=Everybody's Got To Go
TTITLE9=Let The Door Knob Hit Ya
TTITLE10=Guess What
TTITLE11=Skanky
EXTD=
EXTT0=
EXTT1=
EXTT2=
EXTT3=
EXTT4=
EXTT5=
EXTT6=
EXTT7=
EXTT8=
EXTT9=
EXTT10=
EXTT11=
PLAYORDER=
